<?xml version="1.0" encoding="UTF-8"?>
<svg data-bbox="0.027 0 29.973 30" xmlns="http://www.w3.org/2000/svg" viewBox="0 0 30 30" height="30" width="30" data-type="color">
    <g>
        <mask height="30" width="30" y="0" x="0" maskUnits="userSpaceOnUse" style="mask-type:luminance" id="beca0bd4-e769-45d8-a004-b6d5bb557235" fill="none">
            <path fill="#ffffff" d="M30 0H0v30h30z"/>
        </mask>
        <g mask="url(#beca0bd4-e769-45d8-a004-b6d5bb557235)">
            <path fill="#9236E7" d="M30 12.136v6.714c0 .733-.292 1.439-.812 1.958l-8.38 8.38a2.77 2.77 0 0 1-1.957.812h-6.714c-.094 0-.187 0-.28-.027a.5.5 0 0 1-.147-.026 3 3 0 0 1-.36-.107c-.04-.013-.08-.04-.106-.053l-.08-.04c-.053-.027-.093-.053-.146-.08a.6.6 0 0 1-.147-.107s-.013 0-.027-.013c-.053-.04-.093-.08-.133-.12l-.106-.106-.027-.027s-.013-.027-.027-.027c-.04-.04-.066-.08-.093-.106-.027-.027-.04-.053-.066-.08-.04-.067-.08-.12-.12-.187-.027-.066-.067-.12-.094-.186l-.08-.2a1 1 0 0 1-.053-.213c0-.053-.027-.107-.027-.16v-5.382a2.763 2.763 0 0 0-2.757-2.757H2.159a2.13 2.13 0 0 1-1.639-.773 2.12 2.12 0 0 1-.493-1.359V11.15c0-.733.293-1.439.813-1.958L9.22.812A2.77 2.77 0 0 1 11.176 0h6.715a2.13 2.13 0 0 1 2.13 2.131v5.103a2.763 2.763 0 0 1-2.757 2.757H12.79a2.763 2.763 0 0 0-2.757 2.758v4.529a2.853 2.853 0 0 0 2.85 2.704h4.383c.387 0 .746-.08 1.08-.213.08-.04.16-.066.24-.12.08-.04.146-.093.226-.133.066-.053.133-.107.213-.16.066-.053.133-.12.2-.173a1 1 0 0 0 .173-.2c.106-.133.213-.28.293-.44a1 1 0 0 0 .093-.213 2.7 2.7 0 0 0 .24-1.105v-4.476A2.763 2.763 0 0 1 22.78 9.99h5.102c.586 0 1.119.24 1.505.626.386.387.093.093.133.147s.08.093.107.146c.013.027.04.054.053.08l.08.16.04.08c.013.04.04.08.053.12v.013c0 .027.014.04.027.053a.6.6 0 0 0 .04.12c.04.12.053.24.066.373v.214z" data-color="1"/>
            <path fill="#9236E7" d="M10.845 29.572c.054.04.094.067.147.107-.027 0-.04-.027-.067-.04-.026-.027-.066-.04-.093-.067z" data-color="1"/>
            <path fill="#9236E7" d="M11.217 29.803c.04.013.08.04.107.053-.013 0-.027 0-.04-.013-.027 0-.054-.027-.08-.04z" data-color="1"/>
            <path fill="#9236E7" d="M29.51 10.777c.04.054.08.094.106.147a3 3 0 0 0-.12-.147z" data-color="1"/>
        </g>
    </g>
</svg>
