<svg width="102" height="28" viewBox="0 0 102 28" fill="none" xmlns="http://www.w3.org/2000/svg">
<mask id="mask0_3954_73988" style="mask-type:luminance" maskUnits="userSpaceOnUse" x="1" y="1" width="26" height="26">
<path d="M27 1H1V27H27V1Z" fill="white"/>
</mask>
<g mask="url(#mask0_3954_73988)">
<path d="M27.0004 11.5176V17.3365C27.0004 17.9715 26.7464 18.5834 26.2961 19.0336L19.0341 26.2956C18.5838 26.7459 17.9719 26.9999 17.3369 26.9999H11.5181C11.4373 26.9999 11.3565 26.9999 11.2757 26.9768C11.2295 26.9768 11.1833 26.9652 11.1487 26.9537C11.0448 26.9306 10.9293 26.896 10.8369 26.8613C10.8023 26.8498 10.7677 26.8267 10.7446 26.8152C10.7215 26.8036 10.6984 26.7921 10.6753 26.7805C10.6291 26.7574 10.5945 26.7343 10.5483 26.7112C10.5021 26.6882 10.4559 26.6535 10.4213 26.6189C10.4213 26.6189 10.4098 26.6189 10.3982 26.6073C10.352 26.5727 10.3174 26.5381 10.2828 26.5034C10.2481 26.4688 10.225 26.4457 10.1904 26.4111L10.1673 26.388C10.1673 26.388 10.1558 26.3649 10.1442 26.3649C10.1096 26.3303 10.0865 26.2956 10.0634 26.2725C10.0403 26.2494 10.0288 26.2263 10.0057 26.2033C9.97104 26.1455 9.9364 26.0993 9.90177 26.0416C9.87868 25.9839 9.84404 25.9377 9.82095 25.88C9.79786 25.8223 9.77477 25.7645 9.75168 25.7068C9.72859 25.6491 9.71704 25.5914 9.7055 25.5221C9.7055 25.4759 9.68241 25.4297 9.68241 25.3835C9.68241 25.3604 9.68241 25.3374 9.68241 25.3143C9.68241 25.2565 9.68241 25.1988 9.68241 25.1411V20.7192C9.68241 19.4031 8.6087 18.3294 7.29253 18.3294H2.87068C2.36269 18.3294 1.90088 18.1215 1.56607 17.7867C1.51989 17.7406 1.48525 17.7059 1.45061 17.6597C1.18507 17.3365 1.02344 16.9324 1.02344 16.4821V10.6633C1.02344 10.0283 1.27743 9.4164 1.7277 8.96613L8.98969 1.70414C9.43996 1.25388 10.0519 0.999878 10.6868 0.999878H16.5057C17.5332 0.999878 18.3529 1.83114 18.3529 2.84712V7.26897C18.3529 8.58514 17.2792 9.65885 15.963 9.65885H12.0838C10.7677 9.65885 9.69395 10.7326 9.69395 12.0487V15.9741C9.76323 17.2787 10.8369 18.3178 12.1646 18.3178H15.963C16.2979 18.3178 16.6096 18.2485 16.8982 18.1331C16.9675 18.0985 17.0368 18.0754 17.106 18.0292C17.1753 17.9946 17.233 17.9484 17.3023 17.9137C17.36 17.8676 17.4178 17.8214 17.487 17.7752C17.5448 17.729 17.6025 17.6713 17.6602 17.6251C17.7179 17.5789 17.7641 17.5212 17.8103 17.4519C17.9027 17.3365 17.995 17.2095 18.0643 17.0709C18.0989 17.0132 18.122 16.9555 18.1451 16.8862C18.2721 16.5976 18.3529 16.2743 18.3529 15.9279V12.0487C18.3529 10.7326 19.4266 9.65885 20.7428 9.65885H25.1646C25.6726 9.65885 26.1345 9.86666 26.4693 10.2015C26.8041 10.5363 26.5501 10.2823 26.5847 10.3285C26.6194 10.3747 26.654 10.4093 26.6771 10.4555C26.6886 10.4786 26.7117 10.5017 26.7233 10.5247C26.7348 10.5478 26.7464 10.5709 26.7579 10.594C26.7694 10.6171 26.781 10.6402 26.7925 10.6633C26.8041 10.6864 26.8156 10.7095 26.8272 10.7326C26.8387 10.7672 26.8618 10.8018 26.8733 10.8365C26.8733 10.8365 26.8733 10.8365 26.8733 10.848C26.8733 10.8711 26.8849 10.8826 26.8964 10.8942C26.908 10.9404 26.9195 10.975 26.9311 10.9981C26.9657 11.102 26.9773 11.2059 26.9888 11.3214C26.9888 11.3791 26.9888 11.4368 26.9888 11.5061L27.0004 11.5176Z" fill="#9236E7"/>
<path d="M10.3983 26.6304C10.4444 26.665 10.4791 26.6881 10.5253 26.7227C10.5022 26.7227 10.4906 26.6996 10.4675 26.6881C10.4444 26.665 10.4098 26.6535 10.3867 26.6304H10.3983Z" fill="#9236E7"/>
<path d="M10.7226 26.8269C10.7576 26.8385 10.7925 26.8616 10.8159 26.8732C10.8042 26.8732 10.7926 26.8732 10.7809 26.8616C10.7576 26.8616 10.7343 26.8385 10.7109 26.8269H10.7226Z" fill="#9236E7"/>
<path d="M26.5743 10.3401C26.6089 10.3863 26.6435 10.4209 26.6666 10.4671C26.5974 10.3748 26.5281 10.294 26.4473 10.2131C26.4934 10.2593 26.5281 10.2939 26.5627 10.3401H26.5743Z" fill="#9236E7"/>
</g>
<g clip-path="url(#clip0_3954_73988)">
<path d="M40.6572 21.094C39.5635 20.4869 38.6798 19.59 38.0062 18.4031C37.3325 17.2163 37 15.7757 37 14.0724C37 12.3691 37.3412 10.9377 38.0149 9.74174C38.6886 8.55487 39.5898 7.65792 40.7097 7.0509C41.8296 6.44388 43.0369 6.1449 44.3318 6.1449C45.6267 6.1449 46.5366 6.36234 47.499 6.80628C48.4527 7.25022 49.2226 7.86631 49.8088 8.65453C50.395 9.44275 50.7363 10.3488 50.8325 11.3635H48.5489C48.4527 10.7474 48.2077 10.1947 47.814 9.7055C47.4203 9.21625 46.9216 8.84479 46.3179 8.57299C45.7142 8.31025 45.0493 8.17435 44.3231 8.17435C43.5969 8.17435 42.4595 8.40991 41.6983 8.87197C40.9284 9.33403 40.3247 10.0045 39.8785 10.8833C39.441 11.7621 39.2135 12.8222 39.2135 14.0634C39.2135 15.3046 39.4323 16.3646 39.8785 17.2616C40.3159 18.1585 40.9284 18.838 41.6983 19.3091C42.4683 19.7803 43.3344 20.0158 44.3056 20.0158C45.2767 20.0158 45.7929 19.8709 46.4666 19.5719C47.1403 19.2729 47.674 18.8652 48.0765 18.3397C48.479 17.8142 48.6889 17.2253 48.6889 16.5821C48.6889 15.9388 48.5927 16.0475 48.409 15.8482C48.2252 15.6579 47.9715 15.5583 47.6653 15.5583H44.4368V13.701H48.2427C48.6539 13.701 49.0652 13.8006 49.4589 14.009C49.8613 14.2174 50.1851 14.5164 50.4388 14.915C50.6925 15.3137 50.8237 15.7757 50.8237 16.3103V21.8007H48.7939V19.1914C48.4702 20.0339 47.8928 20.7044 47.0616 21.2208C46.2392 21.7282 45.303 21.9819 44.2618 21.9819C43.2207 21.9819 41.7683 21.6829 40.6747 21.0758L40.6572 21.094Z" fill="white"/>
<path d="M54.6557 21.2571C53.8158 20.7588 53.1596 20.0793 52.6784 19.2095C52.1972 18.3398 51.9609 17.3522 51.9609 16.2469C51.9609 15.1416 52.1972 14.154 52.6784 13.2843C53.1596 12.4145 53.8158 11.735 54.6557 11.2367C55.4956 10.7384 56.4493 10.4938 57.5167 10.4938C58.5841 10.4938 59.5202 10.7384 60.3602 11.2367C61.2001 11.735 61.8563 12.4145 62.3375 13.2843C62.8187 14.154 63.0549 15.1416 63.0549 16.2469C63.0549 17.3522 62.8187 18.3398 62.3375 19.2095C61.8563 20.0793 61.2001 20.7588 60.3602 21.2571C59.5202 21.7554 58.5666 22 57.4992 22C56.4318 22 55.4956 21.7554 54.6557 21.2571ZM59.3015 19.6172C59.8177 19.282 60.2202 18.829 60.5089 18.2492C60.7976 17.6693 60.9376 16.9989 60.9376 16.2469C60.9376 15.4949 60.7976 14.8245 60.5089 14.2446C60.2202 13.6648 59.8177 13.2027 59.3015 12.8766C58.7853 12.5413 58.1904 12.3783 57.5167 12.3783C56.843 12.3783 56.248 12.5413 55.7231 12.8766C55.1981 13.2118 54.7869 13.6648 54.507 14.2446C54.2182 14.8245 54.0782 15.4949 54.0782 16.2469C54.0782 16.9989 54.2182 17.6693 54.507 18.2492C54.7957 18.829 55.1981 19.2911 55.7231 19.6172C56.248 19.9525 56.8517 20.1155 57.5167 20.1155C58.1816 20.1155 58.7853 19.9525 59.3015 19.6172Z" fill="white"/>
<path d="M64.6113 6H66.6849V21.8188H64.6113V6Z" fill="white"/>
<path d="M68.9512 6H71.0247V21.8188H68.9512V6Z" fill="white"/>
<path d="M82.7142 21.8188H80.6406V19.8528C80.3519 20.5504 79.9057 21.0759 79.2933 21.4473C78.6808 21.8188 77.9721 22 77.1585 22C76.3448 22 75.6623 21.8097 75.0499 21.4383C74.4462 21.0578 73.9737 20.5413 73.6413 19.8709C73.3088 19.2004 73.1426 18.4213 73.1426 17.5334V10.675H75.2161V17.1166C75.2161 18.0045 75.4436 18.7203 75.9073 19.2639C76.371 19.8075 76.9835 20.0793 77.7359 20.0793C78.4883 20.0793 78.7858 19.9343 79.232 19.6444C79.6695 19.3545 80.0195 18.9558 80.2644 18.4485C80.5094 17.9411 80.6406 17.3613 80.6406 16.7089V10.6659H82.7142V21.8188Z" fill="white"/>
<path d="M84.9706 10.6658H87.0442V12.659C87.2717 11.9976 87.6654 11.4722 88.2341 11.0735C88.794 10.6839 89.459 10.4846 90.2289 10.4846C90.9988 10.4846 91.8562 10.6839 92.4687 11.0826C93.0811 11.4812 93.4923 12.0429 93.7111 12.7678C93.9386 12.1154 94.376 11.5809 95.0235 11.1369C95.6709 10.7021 96.4058 10.4846 97.2108 10.4846C98.0157 10.4846 98.6456 10.6568 99.2231 11.001C99.7918 11.3453 100.229 11.8436 100.535 12.4869C100.842 13.1301 100.999 13.8821 100.999 14.7338V21.8187H98.9256V15.3317C98.9256 14.4348 98.7156 13.71 98.3044 13.1755C97.8932 12.6409 97.3332 12.3691 96.6333 12.3691C95.9334 12.3691 95.1809 12.6409 94.7085 13.1755C94.236 13.71 93.9998 14.4348 93.9998 15.3317V21.8187H91.9262V15.3317C91.9262 14.4348 91.725 13.71 91.3138 13.1755C90.9113 12.6409 90.3514 12.3691 89.6602 12.3691C88.969 12.3691 88.2078 12.6409 87.7354 13.1755C87.2629 13.71 87.0267 14.4348 87.0267 15.3317V21.8187H84.9531V10.6658H84.9706Z" fill="white"/>
</g>
<defs>
<clipPath id="clip0_3954_73988">
<rect width="64" height="16" fill="white" transform="translate(37 6)"/>
</clipPath>
</defs>
</svg>
